<svg xmlns="http://www.w3.org/2000/svg" width="64.91" height="48.918" viewBox="0 0 64.91 48.918">
  <path id="Path_2" data-name="Path 2" d="M80.054,214.5a1.953,1.953,0,0,0-1.954,1.954c0,13.649,14.6,24.882,28.009,25.868v12.187H95.955a1.954,1.954,0,1,0,0,3.909h24.2a1.954,1.954,0,0,0,0-3.909H110V242.322c13.41-1,28.009-12.219,28.009-25.868a1.954,1.954,0,0,0-3.909,0c0,12.171-13.9,22.07-26.07,22.07s-26.07-9.9-26.07-22.07A1.893,1.893,0,0,0,80.054,214.5Z" transform="translate(-75.6 -212)" fill="#aab182" stroke="#aab182" stroke-width="5"/>
</svg>
